<svg width="68" height="67" viewBox="0 0 68 67" fill="none" xmlns="http://www.w3.org/2000/svg">
<path d="M34.1 39.3625C30.9594 39.3625 28.2375 36.85 28.2375 33.5C28.2375 30.3594 30.75 27.6375 34.1 27.6375C37.2406 27.6375 39.9625 30.15 39.9625 33.5C39.9625 36.6406 37.2406 39.3625 34.1 39.3625Z" fill="url(#paint0_linear_437_14)"/>
<path fill-rule="evenodd" clip-rule="evenodd" d="M41.2187 19.2625H26.9812C25.3062 19.4719 24.4687 19.6812 23.8406 19.8906C23.0031 20.1 22.375 20.5187 21.7469 21.1469C21.2498 21.6439 21.015 22.1409 20.7311 22.7417C20.6563 22.9 20.5779 23.066 20.4906 23.2406C20.4582 23.3378 20.4208 23.44 20.3807 23.5495C20.1617 24.1479 19.8625 24.9654 19.8625 26.3812V40.6187C20.0719 42.2937 20.2812 43.1312 20.4906 43.7594C20.7 44.5969 21.1187 45.225 21.7469 45.8531C22.2439 46.3501 22.7409 46.585 23.3417 46.8688C23.5001 46.9437 23.6658 47.022 23.8406 47.1094C23.9378 47.1418 24.04 47.1792 24.1495 47.2192C24.7479 47.4383 25.5653 47.7375 26.9812 47.7375H41.2187C42.8937 47.5281 43.7312 47.3187 44.3593 47.1094C45.1968 46.9 45.825 46.4812 46.4531 45.8531C46.9501 45.3561 47.185 44.8591 47.4688 44.2583C47.5437 44.0999 47.622 43.9341 47.7094 43.7594C47.7417 43.6622 47.7791 43.56 47.8192 43.4505C48.0383 42.8521 48.3375 42.0346 48.3375 40.6187V26.3812C48.1281 24.7062 47.9187 23.8687 47.7094 23.2406C47.5 22.4031 47.0812 21.775 46.4531 21.1469C45.9561 20.6498 45.459 20.415 44.8583 20.1312C44.7001 20.0564 44.5338 19.9779 44.3593 19.8906C44.2622 19.8582 44.16 19.8208 44.0505 19.7807C43.4521 19.5617 42.6346 19.2625 41.2187 19.2625ZM34.1 24.4969C29.075 24.4969 25.0968 28.475 25.0968 33.5C25.0968 38.525 29.075 42.5031 34.1 42.5031C39.125 42.5031 43.1031 38.525 43.1031 33.5C43.1031 28.475 39.125 24.4969 34.1 24.4969ZM45.4062 24.2875C45.4062 25.4438 44.4688 26.3812 43.3125 26.3812C42.1561 26.3812 41.2187 25.4438 41.2187 24.2875C41.2187 23.1311 42.1561 22.1937 43.3125 22.1937C44.4688 22.1937 45.4062 23.1311 45.4062 24.2875Z" fill="url(#paint1_linear_437_14)"/>
<path fill-rule="evenodd" clip-rule="evenodd" d="M0.599976 33.5C0.599976 14.9985 15.5984 0 34.1 0C52.6015 0 67.6 14.9985 67.6 33.5C67.6 52.0015 52.6015 67 34.1 67C15.5984 67 0.599976 52.0015 0.599976 33.5ZM26.9812 16.1219H41.2187C43.1031 16.3312 44.3593 16.5406 45.4062 16.9594C46.6625 17.5875 47.5 18.0062 48.5468 19.0531C49.5937 20.1 50.2219 21.1469 50.6406 22.1937C51.0594 23.2406 51.4781 24.4969 51.4781 26.3812V40.6187C51.2687 42.5031 51.0594 43.7594 50.6406 44.8062C50.0125 46.0625 49.5937 46.9 48.5468 47.9469C47.5 48.9937 46.4531 49.6219 45.4062 50.0406C44.3593 50.4594 43.1031 50.8781 41.2187 50.8781H26.9812C25.0969 50.6687 23.8406 50.4594 22.7937 50.0406C21.5375 49.4125 20.7 48.9937 19.6531 47.9469C18.6062 46.9 17.9781 45.8531 17.5594 44.8062C17.1406 43.7594 16.7218 42.5031 16.7218 40.6187V26.3812C16.9312 24.4969 17.1406 23.2406 17.5594 22.1937C18.1875 20.9375 18.6062 20.1 19.6531 19.0531C20.7 18.0062 21.7469 17.3781 22.7937 16.9594C23.8406 16.5406 25.0969 16.1219 26.9812 16.1219Z" fill="url(#paint2_linear_437_14)"/>
<defs>
<linearGradient id="paint0_linear_437_14" x1="34.1" y1="0" x2="34.1" y2="67" gradientUnits="userSpaceOnUse">
<stop stop-color="#CC00FF"/>
<stop offset="1" stop-color="#9500FF"/>
</linearGradient>
<linearGradient id="paint1_linear_437_14" x1="34.1" y1="0" x2="34.1" y2="67" gradientUnits="userSpaceOnUse">
<stop stop-color="#CC00FF"/>
<stop offset="1" stop-color="#9500FF"/>
</linearGradient>
<linearGradient id="paint2_linear_437_14" x1="34.1" y1="0" x2="34.1" y2="67" gradientUnits="userSpaceOnUse">
<stop stop-color="#CC00FF"/>
<stop offset="1" stop-color="#9500FF"/>
</linearGradient>
</defs>
</svg>
