<svg width="69" height="67" viewBox="0 0 69 67" fill="none" xmlns="http://www.w3.org/2000/svg">
<path fill-rule="evenodd" clip-rule="evenodd" d="M0.799988 33.5C0.799988 14.9985 16.0223 0 34.8 0C53.5777 0 68.8 14.9985 68.8 33.5C68.8 52.0015 53.5777 67 34.8 67C16.0223 67 0.799988 52.0015 0.799988 33.5ZM18.225 27.8469V50.25H25.45V27.8469H18.225ZM17.8 20.7281C17.8 23.0312 19.5 24.7063 21.8375 24.7063C24.175 24.7063 25.875 23.0312 25.875 20.7281C25.875 18.425 24.175 16.75 21.8375 16.75C19.7125 16.75 17.8 18.425 17.8 20.7281ZM44.575 50.25H51.375V36.4313C51.375 29.5219 47.125 27.2188 43.0875 27.2188C39.475 27.2188 36.925 29.5219 36.2875 30.9875V27.8469H29.4875V50.25H36.7125V38.3156C36.7125 35.175 38.8375 33.5 40.9625 33.5C43.0875 33.5 44.575 34.5469 44.575 38.1062V50.25Z" fill="url(#paint0_linear_437_10)"/>
<defs>
<linearGradient id="paint0_linear_437_10" x1="34.8" y1="0" x2="34.8" y2="67" gradientUnits="userSpaceOnUse">
<stop stop-color="#CC00FF"/>
<stop offset="1" stop-color="#9500FF"/>
</linearGradient>
</defs>
</svg>
