<svg width="211" height="57" viewBox="0 0 211 57" fill="none" xmlns="http://www.w3.org/2000/svg">
<path d="M52 26.3491C52 39.7133 41.031 57 27.5 57C13.969 57 3 39.7133 3 26.3491C3 12.9848 13.969 0 27.5 0C41.031 0 52 12.9848 52 26.3491Z" fill="url(#paint0_linear_437_29)"/>
<path d="M22.8955 13.1064L21.665 22.3789C21.2402 22.2617 20.8154 22.1812 20.3906 22.1372C19.9658 22.0933 19.541 22.0713 19.1162 22.0713C18.0322 22.0713 16.9995 22.2178 16.0181 22.5107C15.0366 22.7891 14.165 23.2212 13.4033 23.8071C12.6562 24.3931 12.0557 25.1255 11.6016 26.0044C11.1621 26.8833 10.9424 27.916 10.9424 29.1025C10.9424 29.8643 11.0596 30.5234 11.2939 31.0801C11.543 31.6367 11.8872 32.0981 12.3267 32.4644C12.7661 32.8306 13.2861 33.1016 13.8867 33.2773C14.4873 33.4531 15.1465 33.541 15.8643 33.541C16.4062 33.541 16.9702 33.4824 17.5562 33.3652C18.1421 33.248 18.7207 33.0942 19.292 32.9038C19.8633 32.7134 20.4199 32.4937 20.9619 32.2446C21.5039 31.9956 22.002 31.7393 22.4561 31.4756L21.5771 41.8027C21.0059 42.0957 20.3833 42.3594 19.7095 42.5938C19.0503 42.8135 18.3691 43.0112 17.666 43.187C16.9629 43.3481 16.2598 43.4727 15.5566 43.5605C14.8535 43.6484 14.1797 43.6924 13.5352 43.6924C11.6748 43.6924 9.93896 43.3481 8.32764 42.6597C6.71631 41.9712 5.31738 41.0264 4.13086 39.8252C2.94434 38.624 2.00684 37.2104 1.31836 35.5845C0.644531 33.9438 0.307617 32.1787 0.307617 30.2891C0.307617 27.7842 0.666504 25.4258 1.38428 23.2139C2.10205 20.9873 3.15674 19.0391 4.54834 17.3691C5.93994 15.6992 7.66113 14.3809 9.71191 13.4141C11.7773 12.4473 14.1504 11.9639 16.8311 11.9639C17.8418 11.9639 18.8745 12.0444 19.9292 12.2056C20.9985 12.3667 21.9873 12.667 22.8955 13.1064ZM50.8008 39.5176C50.1123 40.3818 49.2627 41.1362 48.252 41.7808C47.2412 42.4253 46.1572 42.96 45 43.3848C43.8428 43.8096 42.6562 44.1245 41.4404 44.3296C40.2246 44.5493 39.0674 44.6592 37.9688 44.6592C35.8447 44.6592 33.8892 44.2783 32.1021 43.5166C30.3149 42.7549 28.7695 41.7075 27.4658 40.3745C26.1768 39.0269 25.166 37.4448 24.4336 35.6284C23.7012 33.812 23.335 31.8564 23.335 29.7617C23.335 28.165 23.5181 26.605 23.8843 25.0815C24.2505 23.5435 24.7705 22.1006 25.4443 20.7529C26.1328 19.3906 26.9678 18.1455 27.9492 17.0176C28.9307 15.875 30.0439 14.8936 31.2891 14.0732C32.5342 13.2529 33.8965 12.6157 35.376 12.1616C36.8555 11.7075 38.4375 11.4805 40.1221 11.4805C40.752 11.4805 41.4258 11.5098 42.1436 11.5684C42.8613 11.6123 43.5718 11.7002 44.2749 11.832C44.9927 11.9492 45.6885 12.1177 46.3623 12.3374C47.0361 12.5571 47.6514 12.8281 48.208 13.1504L47.5928 21.5439C46.7725 21.2363 45.9229 21.0312 45.0439 20.9287C44.1797 20.8115 43.3301 20.7529 42.4951 20.7529C41.3232 20.7529 40.2246 20.936 39.1992 21.3022C38.1885 21.6538 37.3022 22.1665 36.5405 22.8403C35.7935 23.5142 35.2002 24.3345 34.7607 25.3013C34.3213 26.2681 34.1016 27.3594 34.1016 28.5752C34.1016 29.3369 34.2041 30.0767 34.4092 30.7944C34.6143 31.4976 34.9219 32.1274 35.332 32.6841C35.7568 33.2261 36.2769 33.6655 36.8921 34.0024C37.522 34.3394 38.2471 34.5078 39.0674 34.5078C39.624 34.5078 40.1953 34.4346 40.7812 34.2881C41.3818 34.1416 41.8945 33.8926 42.3193 33.541L42.4072 31.8271L37.1338 31.7393L37.3975 25.1475C39.5801 25.0742 41.7627 25.0156 43.9453 24.9717C46.1279 24.9131 48.3252 24.8398 50.5371 24.752L50.8008 39.5176ZM86.8579 36.1777C86.8579 37.3936 86.6309 38.4409 86.1768 39.3198C85.7373 40.1987 85.144 40.9458 84.397 41.561C83.6499 42.1763 82.7856 42.6816 81.8042 43.0771C80.8374 43.458 79.8267 43.7583 78.772 43.978C77.7173 44.1978 76.6553 44.3442 75.5859 44.4175C74.5312 44.4907 73.5425 44.5273 72.6196 44.5273C71.7114 44.5273 70.7666 44.4907 69.7852 44.4175C68.8184 44.3589 67.8516 44.249 66.8848 44.0879C65.918 43.9268 64.9658 43.7144 64.0283 43.4507C63.0908 43.1724 62.2046 42.8281 61.3696 42.418L61.3257 14.1172C62.146 13.7803 63.0176 13.48 63.9404 13.2163C64.8633 12.938 65.8008 12.7109 66.7529 12.5352C67.7197 12.3447 68.6792 12.2056 69.6313 12.1177C70.5835 12.0151 71.5063 11.9639 72.3999 11.9639C73.4399 11.9639 74.4873 12.0298 75.542 12.1616C76.6113 12.2935 77.6367 12.5132 78.6182 12.8208C79.5996 13.1284 80.5151 13.5312 81.3647 14.0293C82.2144 14.5127 82.9541 15.1133 83.584 15.8311C84.2285 16.5488 84.7266 17.3838 85.0781 18.3359C85.4443 19.2881 85.6274 20.3867 85.6274 21.6318C85.6274 22.4521 85.5103 23.2212 85.2759 23.939C85.0415 24.6567 84.7046 25.3013 84.2651 25.8726C83.8257 26.4438 83.291 26.9346 82.6611 27.3447C82.0312 27.7402 81.3208 28.0332 80.5298 28.2236C81.4819 28.4727 82.3462 28.8389 83.1226 29.3223C83.9136 29.8057 84.5801 30.3916 85.1221 31.0801C85.6787 31.7686 86.1035 32.5449 86.3965 33.4092C86.7041 34.2734 86.8579 35.1963 86.8579 36.1777ZM75.6958 23.6533C75.6958 23.2285 75.6079 22.8696 75.4321 22.5767C75.2563 22.269 75.0366 22.02 74.7729 21.8296C74.5239 21.6392 74.2456 21.5 73.938 21.4121C73.645 21.3242 73.3813 21.2803 73.147 21.2803C72.854 21.2803 72.5684 21.3242 72.29 21.4121C72.0117 21.5 71.7407 21.6025 71.4771 21.7197L71.3452 26.5977C71.6821 26.5977 72.0996 26.5684 72.5977 26.5098C73.0957 26.4512 73.5718 26.3267 74.0259 26.1362C74.4946 25.9312 74.8901 25.6382 75.2124 25.2573C75.5347 24.8618 75.6958 24.3271 75.6958 23.6533ZM72.5757 30.8164C72.1509 30.8164 71.7407 30.8604 71.3452 30.9482L71.2573 35.958C71.4771 36.002 71.6895 36.0459 71.8945 36.0898C72.1143 36.1191 72.3267 36.1338 72.5317 36.1338C72.8394 36.1338 73.1763 36.1045 73.5425 36.0459C73.9087 35.9727 74.2529 35.8408 74.5752 35.6504C74.8975 35.4453 75.1611 35.1743 75.3662 34.8374C75.5859 34.5005 75.6958 34.0537 75.6958 33.4971C75.6958 32.9404 75.5859 32.4863 75.3662 32.1348C75.1611 31.7832 74.9048 31.5122 74.5972 31.3218C74.2896 31.1167 73.9526 30.9849 73.5864 30.9263C73.2202 30.853 72.8833 30.8164 72.5757 30.8164ZM107.358 31.4756L106.436 41.2314L87.9346 42.6816C88.0225 37.5693 88.1177 32.4863 88.2202 27.4326C88.3374 22.3789 88.4766 17.2959 88.6377 12.1836H100.063C99.7266 15.3916 99.4043 18.5996 99.0967 21.8076C98.7891 25.001 98.5693 28.2236 98.4375 31.4756C99.126 31.5049 99.8071 31.5195 100.481 31.5195C101.155 31.5195 101.836 31.5195 102.524 31.5195C103.345 31.5195 104.15 31.5122 104.941 31.4976C105.732 31.4829 106.538 31.4756 107.358 31.4756ZM129.199 12.3154C129.111 13.6924 129.031 15.0547 128.958 16.4023C128.884 17.75 128.789 19.1123 128.672 20.4893L119.355 20.9727L119.136 23.7412H125.684L125.2 30.5527L118.608 30.7725L118.389 33.9805H123.838H127.705C127.617 35.5918 127.522 37.1958 127.419 38.7925C127.332 40.3745 127.251 41.9639 127.178 43.5605L108.237 44L108.94 12.3154H129.199ZM159.851 12.4912L158.269 42.2861L146.755 43.3408L140.603 27.3887L139.636 43.6484H129.749L130.54 12.4912L141.526 11.9639L149.128 27.7842L149.48 12.8428L159.851 12.4912ZM186.548 26.5537C186.548 28.6045 186.284 30.4575 185.757 32.1128C185.229 33.7534 184.49 35.2183 183.538 36.5073C182.6 37.7817 181.479 38.8804 180.176 39.8032C178.872 40.7261 177.444 41.4878 175.891 42.0884C174.338 42.6743 172.683 43.1138 170.925 43.4067C169.182 43.6851 167.388 43.8242 165.542 43.8242C164.854 43.8242 164.18 43.8096 163.521 43.7803C162.861 43.7363 162.188 43.6777 161.499 43.6045L162.114 14.1172C163.726 13.6045 165.381 13.2456 167.08 13.0405C168.794 12.8208 170.493 12.7109 172.178 12.7109C174.272 12.7109 176.199 13.0259 177.957 13.6558C179.714 14.2856 181.23 15.1938 182.505 16.3804C183.779 17.5669 184.768 19.0171 185.471 20.731C186.189 22.4448 186.548 24.3857 186.548 26.5537ZM177.539 27.96C177.554 27.1689 177.466 26.4072 177.275 25.6748C177.1 24.9424 176.799 24.2979 176.375 23.7412C175.964 23.1699 175.437 22.7158 174.792 22.3789C174.148 22.0273 173.379 21.8369 172.485 21.8076L171.606 35.4307C172.485 35.2988 173.284 35.0132 174.001 34.5737C174.719 34.1196 175.334 33.5703 175.847 32.9258C176.375 32.2666 176.777 31.5415 177.056 30.7505C177.349 29.9448 177.51 29.1172 177.539 28.2676V27.96ZM210.388 32.3105C210.388 34.3174 210.037 36.0752 209.333 37.584C208.645 39.0781 207.693 40.3232 206.477 41.3193C205.276 42.3154 203.862 43.0625 202.236 43.5605C200.625 44.0586 198.889 44.3076 197.029 44.3076C196.311 44.3076 195.52 44.2124 194.656 44.022C193.806 43.8315 192.942 43.5972 192.063 43.3188C191.184 43.0259 190.334 42.7183 189.514 42.396C188.708 42.0591 187.991 41.7441 187.361 41.4512L188.328 32.3984C189.573 33.1455 190.95 33.7168 192.458 34.1123C193.982 34.4932 195.476 34.6836 196.941 34.6836C197.219 34.6836 197.556 34.6763 197.952 34.6616C198.347 34.6323 198.721 34.5664 199.072 34.4639C199.438 34.3467 199.746 34.1782 199.995 33.9585C200.244 33.7388 200.369 33.4238 200.369 33.0137C200.369 32.7354 200.281 32.501 200.105 32.3105C199.929 32.1055 199.702 31.9443 199.424 31.8271C199.146 31.6953 198.831 31.6001 198.479 31.5415C198.127 31.4683 197.783 31.417 197.446 31.3877C197.109 31.3584 196.794 31.3438 196.501 31.3438C196.208 31.3438 195.974 31.3438 195.798 31.3438C194.539 31.3438 193.389 31.124 192.349 30.6846C191.323 30.2451 190.437 29.6372 189.69 28.8608C188.958 28.0698 188.386 27.1396 187.976 26.0703C187.566 24.9863 187.361 23.8145 187.361 22.5547C187.361 20.8262 187.705 19.2808 188.394 17.9185C189.097 16.5415 190.027 15.377 191.184 14.4248C192.356 13.458 193.696 12.7183 195.205 12.2056C196.714 11.6929 198.274 11.4365 199.885 11.4365C200.603 11.4365 201.343 11.4658 202.104 11.5244C202.866 11.5684 203.621 11.6562 204.368 11.7881C205.129 11.9199 205.869 12.0884 206.587 12.2935C207.305 12.4985 207.986 12.7549 208.63 13.0625L207.795 21.9834C206.799 21.6465 205.752 21.3682 204.653 21.1484C203.569 20.9141 202.507 20.7969 201.467 20.7969C201.277 20.7969 201.028 20.8042 200.72 20.8188C200.427 20.8188 200.112 20.8408 199.775 20.8848C199.453 20.9141 199.124 20.9653 198.787 21.0386C198.45 21.1118 198.149 21.2144 197.886 21.3462C197.622 21.4634 197.41 21.6245 197.249 21.8296C197.087 22.0347 197.014 22.2764 197.029 22.5547C197.043 22.877 197.161 23.1406 197.38 23.3457C197.615 23.5361 197.908 23.6899 198.259 23.8071C198.625 23.9097 199.021 23.9829 199.446 24.0269C199.885 24.0708 200.317 24.1001 200.742 24.1147C201.167 24.1147 201.562 24.1147 201.929 24.1147C202.295 24.1001 202.595 24.1074 202.83 24.1367C204.001 24.21 205.056 24.459 205.994 24.8838C206.931 25.3086 207.722 25.8726 208.367 26.5757C209.026 27.2788 209.524 28.1211 209.861 29.1025C210.212 30.0693 210.388 31.1387 210.388 32.3105Z" fill="url(#paint1_linear_437_29)"/>
<mask id="path-3-outside-1_437_29" maskUnits="userSpaceOnUse" x="-1" y="10" width="53" height="36" fill="black">
<rect fill="white" x="-1" y="10" width="53" height="36"/>
<path d="M22.8955 13.1064L21.665 22.3789C21.2402 22.2617 20.8154 22.1812 20.3906 22.1372C19.9658 22.0933 19.541 22.0713 19.1162 22.0713C18.0322 22.0713 16.9995 22.2178 16.0181 22.5107C15.0366 22.7891 14.165 23.2212 13.4033 23.8071C12.6562 24.3931 12.0557 25.1255 11.6016 26.0044C11.1621 26.8833 10.9424 27.916 10.9424 29.1025C10.9424 29.8643 11.0596 30.5234 11.2939 31.0801C11.543 31.6367 11.8872 32.0981 12.3267 32.4644C12.7661 32.8306 13.2861 33.1016 13.8867 33.2773C14.4873 33.4531 15.1465 33.541 15.8643 33.541C16.4062 33.541 16.9702 33.4824 17.5562 33.3652C18.1421 33.248 18.7207 33.0942 19.292 32.9038C19.8633 32.7134 20.4199 32.4937 20.9619 32.2446C21.5039 31.9956 22.002 31.7393 22.4561 31.4756L21.5771 41.8027C21.0059 42.0957 20.3833 42.3594 19.7095 42.5938C19.0503 42.8135 18.3691 43.0112 17.666 43.187C16.9629 43.3481 16.2598 43.4727 15.5566 43.5605C14.8535 43.6484 14.1797 43.6924 13.5352 43.6924C11.6748 43.6924 9.93896 43.3481 8.32764 42.6597C6.71631 41.9712 5.31738 41.0264 4.13086 39.8252C2.94434 38.624 2.00684 37.2104 1.31836 35.5845C0.644531 33.9438 0.307617 32.1787 0.307617 30.2891C0.307617 27.7842 0.666504 25.4258 1.38428 23.2139C2.10205 20.9873 3.15674 19.0391 4.54834 17.3691C5.93994 15.6992 7.66113 14.3809 9.71191 13.4141C11.7773 12.4473 14.1504 11.9639 16.8311 11.9639C17.8418 11.9639 18.8745 12.0444 19.9292 12.2056C20.9985 12.3667 21.9873 12.667 22.8955 13.1064ZM50.8008 39.5176C50.1123 40.3818 49.2627 41.1362 48.252 41.7808C47.2412 42.4253 46.1572 42.96 45 43.3848C43.8428 43.8096 42.6562 44.1245 41.4404 44.3296C40.2246 44.5493 39.0674 44.6592 37.9688 44.6592C35.8447 44.6592 33.8892 44.2783 32.1021 43.5166C30.3149 42.7549 28.7695 41.7075 27.4658 40.3745C26.1768 39.0269 25.166 37.4448 24.4336 35.6284C23.7012 33.812 23.335 31.8564 23.335 29.7617C23.335 28.165 23.5181 26.605 23.8843 25.0815C24.2505 23.5435 24.7705 22.1006 25.4443 20.7529C26.1328 19.3906 26.9678 18.1455 27.9492 17.0176C28.9307 15.875 30.0439 14.8936 31.2891 14.0732C32.5342 13.2529 33.8965 12.6157 35.376 12.1616C36.8555 11.7075 38.4375 11.4805 40.1221 11.4805C40.752 11.4805 41.4258 11.5098 42.1436 11.5684C42.8613 11.6123 43.5718 11.7002 44.2749 11.832C44.9927 11.9492 45.6885 12.1177 46.3623 12.3374C47.0361 12.5571 47.6514 12.8281 48.208 13.1504L47.5928 21.5439C46.7725 21.2363 45.9229 21.0312 45.0439 20.9287C44.1797 20.8115 43.3301 20.7529 42.4951 20.7529C41.3232 20.7529 40.2246 20.936 39.1992 21.3022C38.1885 21.6538 37.3022 22.1665 36.5405 22.8403C35.7935 23.5142 35.2002 24.3345 34.7607 25.3013C34.3213 26.2681 34.1016 27.3594 34.1016 28.5752C34.1016 29.3369 34.2041 30.0767 34.4092 30.7944C34.6143 31.4976 34.9219 32.1274 35.332 32.6841C35.7568 33.2261 36.2769 33.6655 36.8921 34.0024C37.522 34.3394 38.2471 34.5078 39.0674 34.5078C39.624 34.5078 40.1953 34.4346 40.7812 34.2881C41.3818 34.1416 41.8945 33.8926 42.3193 33.541L42.4072 31.8271L37.1338 31.7393L37.3975 25.1475C39.5801 25.0742 41.7627 25.0156 43.9453 24.9717C46.1279 24.9131 48.3252 24.8398 50.5371 24.752L50.8008 39.5176Z"/>
</mask>
<path d="M22.8955 13.1064L21.665 22.3789C21.2402 22.2617 20.8154 22.1812 20.3906 22.1372C19.9658 22.0933 19.541 22.0713 19.1162 22.0713C18.0322 22.0713 16.9995 22.2178 16.0181 22.5107C15.0366 22.7891 14.165 23.2212 13.4033 23.8071C12.6562 24.3931 12.0557 25.1255 11.6016 26.0044C11.1621 26.8833 10.9424 27.916 10.9424 29.1025C10.9424 29.8643 11.0596 30.5234 11.2939 31.0801C11.543 31.6367 11.8872 32.0981 12.3267 32.4644C12.7661 32.8306 13.2861 33.1016 13.8867 33.2773C14.4873 33.4531 15.1465 33.541 15.8643 33.541C16.4062 33.541 16.9702 33.4824 17.5562 33.3652C18.1421 33.248 18.7207 33.0942 19.292 32.9038C19.8633 32.7134 20.4199 32.4937 20.9619 32.2446C21.5039 31.9956 22.002 31.7393 22.4561 31.4756L21.5771 41.8027C21.0059 42.0957 20.3833 42.3594 19.7095 42.5938C19.0503 42.8135 18.3691 43.0112 17.666 43.187C16.9629 43.3481 16.2598 43.4727 15.5566 43.5605C14.8535 43.6484 14.1797 43.6924 13.5352 43.6924C11.6748 43.6924 9.93896 43.3481 8.32764 42.6597C6.71631 41.9712 5.31738 41.0264 4.13086 39.8252C2.94434 38.624 2.00684 37.2104 1.31836 35.5845C0.644531 33.9438 0.307617 32.1787 0.307617 30.2891C0.307617 27.7842 0.666504 25.4258 1.38428 23.2139C2.10205 20.9873 3.15674 19.0391 4.54834 17.3691C5.93994 15.6992 7.66113 14.3809 9.71191 13.4141C11.7773 12.4473 14.1504 11.9639 16.8311 11.9639C17.8418 11.9639 18.8745 12.0444 19.9292 12.2056C20.9985 12.3667 21.9873 12.667 22.8955 13.1064ZM50.8008 39.5176C50.1123 40.3818 49.2627 41.1362 48.252 41.7808C47.2412 42.4253 46.1572 42.96 45 43.3848C43.8428 43.8096 42.6562 44.1245 41.4404 44.3296C40.2246 44.5493 39.0674 44.6592 37.9688 44.6592C35.8447 44.6592 33.8892 44.2783 32.1021 43.5166C30.3149 42.7549 28.7695 41.7075 27.4658 40.3745C26.1768 39.0269 25.166 37.4448 24.4336 35.6284C23.7012 33.812 23.335 31.8564 23.335 29.7617C23.335 28.165 23.5181 26.605 23.8843 25.0815C24.2505 23.5435 24.7705 22.1006 25.4443 20.7529C26.1328 19.3906 26.9678 18.1455 27.9492 17.0176C28.9307 15.875 30.0439 14.8936 31.2891 14.0732C32.5342 13.2529 33.8965 12.6157 35.376 12.1616C36.8555 11.7075 38.4375 11.4805 40.1221 11.4805C40.752 11.4805 41.4258 11.5098 42.1436 11.5684C42.8613 11.6123 43.5718 11.7002 44.2749 11.832C44.9927 11.9492 45.6885 12.1177 46.3623 12.3374C47.0361 12.5571 47.6514 12.8281 48.208 13.1504L47.5928 21.5439C46.7725 21.2363 45.9229 21.0312 45.0439 20.9287C44.1797 20.8115 43.3301 20.7529 42.4951 20.7529C41.3232 20.7529 40.2246 20.936 39.1992 21.3022C38.1885 21.6538 37.3022 22.1665 36.5405 22.8403C35.7935 23.5142 35.2002 24.3345 34.7607 25.3013C34.3213 26.2681 34.1016 27.3594 34.1016 28.5752C34.1016 29.3369 34.2041 30.0767 34.4092 30.7944C34.6143 31.4976 34.9219 32.1274 35.332 32.6841C35.7568 33.2261 36.2769 33.6655 36.8921 34.0024C37.522 34.3394 38.2471 34.5078 39.0674 34.5078C39.624 34.5078 40.1953 34.4346 40.7812 34.2881C41.3818 34.1416 41.8945 33.8926 42.3193 33.541L42.4072 31.8271L37.1338 31.7393L37.3975 25.1475C39.5801 25.0742 41.7627 25.0156 43.9453 24.9717C46.1279 24.9131 48.3252 24.8398 50.5371 24.752L50.8008 39.5176Z" fill="white"/>
<path d="M22.8955 13.1064L23.8868 13.238L23.9819 12.5212L23.3311 12.2063L22.8955 13.1064ZM21.665 22.3789L21.3991 23.3429L22.5054 23.6481L22.6563 22.5105L21.665 22.3789ZM16.0181 22.5107L16.2909 23.4729L16.3041 23.469L16.0181 22.5107ZM13.4033 23.8071L12.7936 23.0145L12.7862 23.0203L13.4033 23.8071ZM11.6016 26.0044L10.7131 25.5453L10.7071 25.5572L11.6016 26.0044ZM11.2939 31.0801L10.3723 31.4681L10.3766 31.4783L10.3811 31.4884L11.2939 31.0801ZM22.4561 31.4756L23.4525 31.5604L23.6154 29.6461L21.9539 30.6108L22.4561 31.4756ZM21.5771 41.8027L22.0335 42.6926L22.5266 42.4397L22.5735 41.8875L21.5771 41.8027ZM19.7095 42.5938L20.0257 43.5425L20.038 43.5382L19.7095 42.5938ZM17.666 43.187L17.8894 44.1617L17.899 44.1595L17.9086 44.1572L17.666 43.187ZM1.31836 35.5845L0.393285 35.9644L0.397507 35.9744L1.31836 35.5845ZM1.38428 23.2139L2.33545 23.5225L2.33605 23.5207L1.38428 23.2139ZM9.71191 13.4141L9.28797 12.5084L9.28549 12.5095L9.71191 13.4141ZM19.9292 12.2056L19.7782 13.1941L19.7802 13.1944L19.9292 12.2056ZM21.9042 12.9749L20.6737 22.2474L22.6563 22.5105L23.8868 13.238L21.9042 12.9749ZM21.931 21.4149C21.4545 21.2835 20.9752 21.1923 20.4935 21.1425L20.2877 23.1319C20.6557 23.17 21.026 23.24 21.3991 23.3429L21.931 21.4149ZM20.4935 21.1425C20.0347 21.0951 19.5756 21.0713 19.1162 21.0713V23.0713C19.5065 23.0713 19.8969 23.0915 20.2877 23.1319L20.4935 21.1425ZM19.1162 21.0713C17.941 21.0713 16.8116 21.2303 15.732 21.5525L16.3041 23.469C17.1875 23.2053 18.1234 23.0713 19.1162 23.0713V21.0713ZM15.7452 21.5487C14.6494 21.8594 13.6619 22.3466 12.7936 23.0145L14.013 24.5998C14.6681 24.0958 15.4239 23.7187 16.2909 23.4728L15.7452 21.5487ZM12.7862 23.0203C11.9215 23.6985 11.2303 24.5445 10.7131 25.5454L12.49 26.4634C12.8811 25.7065 13.391 25.0876 14.0205 24.594L12.7862 23.0203ZM10.7071 25.5572C10.1853 26.6008 9.94238 27.7926 9.94238 29.1025H11.9424C11.9424 28.0394 12.1389 27.1658 12.496 26.4516L10.7071 25.5572ZM9.94238 29.1025C9.94238 29.964 10.0746 30.7611 10.3723 31.4681L12.2156 30.692C12.0445 30.2858 11.9424 29.7645 11.9424 29.1025H9.94238ZM10.3811 31.4884C10.6882 32.1749 11.1222 32.7624 11.6865 33.2326L12.9668 31.6961C12.6522 31.4339 12.3977 31.0986 12.2068 30.6717L10.3811 31.4884ZM11.6865 33.2326C12.2408 33.6945 12.8861 34.0264 13.6058 34.2371L14.1676 32.3176C13.6862 32.1767 13.2914 31.9666 12.9668 31.6961L11.6865 33.2326ZM13.6058 34.2371C14.3099 34.4432 15.0651 34.541 15.8643 34.541V32.541C15.2279 32.541 14.6647 32.4631 14.1676 32.3176L13.6058 34.2371ZM15.8643 34.541C16.4784 34.541 17.1083 34.4746 17.7523 34.3458L17.36 32.3847C16.8322 32.4902 16.3341 32.541 15.8643 32.541V34.541ZM17.7523 34.3458C18.3792 34.2204 18.9979 34.0559 19.6082 33.8525L18.9758 31.9551C18.4435 32.1325 17.905 32.2757 17.36 32.3847L17.7523 34.3458ZM19.6082 33.8525C20.2136 33.6507 20.8041 33.4176 21.3794 33.1533L20.5444 31.336C20.0357 31.5697 19.5129 31.7761 18.9758 31.9551L19.6082 33.8525ZM21.3794 33.1533C21.9465 32.8928 22.4732 32.622 22.9582 32.3404L21.9539 30.6108C21.5307 30.8565 21.0613 31.0985 20.5444 31.336L21.3794 33.1533ZM21.4597 31.3908L20.5807 41.7179L22.5735 41.8875L23.4525 31.5604L21.4597 31.3908ZM21.1208 40.9129C20.5951 41.1825 20.0157 41.4285 19.381 41.6493L20.038 43.5382C20.7509 43.2903 21.4166 43.0089 22.0335 42.6926L21.1208 40.9129ZM19.3932 41.6451C18.7594 41.8564 18.1028 42.047 17.4235 42.2169L17.9086 44.1572C18.6354 43.9754 19.3412 43.7706 20.0257 43.5424L19.3932 41.6451ZM17.4426 42.2123C16.7717 42.366 16.1017 42.4846 15.4326 42.5683L15.6807 44.5528C16.4178 44.4607 17.1541 44.3303 17.8894 44.1617L17.4426 42.2123ZM15.4326 42.5683C14.7666 42.6515 14.1344 42.6924 13.5352 42.6924V44.6924C14.225 44.6924 14.9404 44.6454 15.6807 44.5528L15.4326 42.5683ZM13.5352 42.6924C11.8014 42.6924 10.2001 42.3723 8.72055 41.7401L7.93473 43.5792C9.6778 44.324 11.5482 44.6924 13.5352 44.6924V42.6924ZM8.72055 41.7401C7.22385 41.1006 5.93425 40.2279 4.84229 39.1224L3.41943 40.528C4.70051 41.8249 6.20877 42.8418 7.93473 43.5792L8.72055 41.7401ZM4.84229 39.1224C3.7488 38.0154 2.88061 36.7094 2.23921 35.1946L0.397507 35.9744C1.13306 37.7115 2.13987 39.2326 3.41943 40.528L4.84229 39.1224ZM2.24338 35.2046C1.62224 33.6922 1.30762 32.057 1.30762 30.2891H-0.692383C-0.692383 32.3004 -0.333175 34.1955 0.39334 35.9644L2.24338 35.2046ZM1.30762 30.2891C1.30762 27.8809 1.65243 25.6273 2.33545 23.5225L0.433104 22.9052C-0.319422 25.2242 -0.692383 27.6874 -0.692383 30.2891H1.30762ZM2.33605 23.5207C3.01756 21.4066 4.01299 19.5736 5.31656 18.0093L3.78012 16.729C2.30049 18.5045 1.18654 20.568 0.43251 22.907L2.33605 23.5207ZM5.31656 18.0093C6.61082 16.4562 8.21357 15.226 10.1383 14.3186L9.28549 12.5095C7.10869 13.5357 5.26906 14.9422 3.78012 16.729L5.31656 18.0093ZM10.1359 14.3198C12.0473 13.425 14.2714 12.9639 16.8311 12.9639V10.9639C14.0294 10.9639 11.5074 11.4695 9.28797 12.5084L10.1359 14.3198ZM16.8311 12.9639C17.7885 12.9639 18.7707 13.0402 19.7782 13.1941L20.0802 11.217C18.9783 11.0487 17.8951 10.9639 16.8311 10.9639V12.9639ZM19.7802 13.1944C20.7572 13.3416 21.6485 13.614 22.4599 14.0066L23.3311 12.2063C22.3261 11.72 21.2398 11.3918 20.0782 11.2167L19.7802 13.1944ZM50.8008 39.5176L51.5829 40.1407L51.807 39.8593L51.8006 39.4997L50.8008 39.5176ZM41.4404 44.3296L41.2741 43.3435L41.2626 43.3455L41.4404 44.3296ZM27.4658 40.3745L26.7431 41.0658L26.7509 41.0737L27.4658 40.3745ZM24.4336 35.6284L23.5062 36.0024L24.4336 35.6284ZM23.8843 25.0815L24.8566 25.3153L24.8571 25.3132L23.8843 25.0815ZM25.4443 20.7529L24.5518 20.3019L24.5499 20.3057L25.4443 20.7529ZM27.9492 17.0176L28.7036 17.674L28.7078 17.6692L27.9492 17.0176ZM42.1436 11.5684L42.0622 12.565L42.0723 12.5659L42.0824 12.5665L42.1436 11.5684ZM44.2749 11.832L44.0906 12.8149L44.1022 12.8171L44.1138 12.819L44.2749 11.832ZM48.208 13.1504L49.2053 13.2235L49.2511 12.5988L48.709 12.285L48.208 13.1504ZM47.5928 21.5439L47.2416 22.4803L48.4924 22.9493L48.5901 21.617L47.5928 21.5439ZM45.0439 20.9287L44.9096 21.9196L44.9188 21.9209L44.9281 21.922L45.0439 20.9287ZM39.1992 21.3022L39.5278 22.2468L39.5356 22.244L39.1992 21.3022ZM36.5405 22.8403L35.8779 22.0913L35.8708 22.0978L36.5405 22.8403ZM34.4092 30.7944L33.4476 31.0692L33.4492 31.0744L34.4092 30.7944ZM35.332 32.6841L34.527 33.2773L34.5358 33.2893L34.545 33.301L35.332 32.6841ZM36.8921 34.0024L36.4118 34.8796L36.4204 34.8842L36.8921 34.0024ZM40.7812 34.2881L40.5443 33.3165L40.5387 33.3179L40.7812 34.2881ZM42.3193 33.541L42.9569 34.3114L43.2955 34.0312L43.318 33.5922L42.3193 33.541ZM42.4072 31.8271L43.4059 31.8784L43.4589 30.8445L42.4239 30.8273L42.4072 31.8271ZM37.1338 31.7393L36.1346 31.6993L36.0937 32.7221L37.1171 32.7391L37.1338 31.7393ZM37.3975 25.1475L37.3639 24.148L36.4354 24.1792L36.3983 25.1075L37.3975 25.1475ZM43.9453 24.9717L43.9654 25.9715L43.9721 25.9713L43.9453 24.9717ZM50.5371 24.752L51.5369 24.7341L51.5187 23.7122L50.4974 23.7527L50.5371 24.752ZM50.0186 38.8945C49.4045 39.6654 48.6398 40.3474 47.7143 40.9376L48.7896 42.6239C49.8856 41.9251 50.8201 41.0983 51.5829 40.1407L50.0186 38.8945ZM47.7143 40.9376C46.766 41.5423 45.7469 42.0453 44.6554 42.446L45.3446 44.3235C46.5675 43.8746 47.7165 43.3083 48.7896 42.6239L47.7143 40.9376ZM44.6554 42.446C43.556 42.8496 42.4292 43.1487 41.2741 43.3435L41.6068 45.3157C42.8833 45.1003 44.1295 44.7696 45.3446 44.3235L44.6554 42.446ZM41.2626 43.3455C40.0983 43.5559 39.0009 43.6592 37.9688 43.6592V45.6592C39.1339 45.6592 40.3509 45.5427 41.6183 45.3136L41.2626 43.3455ZM37.9688 43.6592C35.9668 43.6592 34.1461 43.3008 32.4941 42.5967L31.71 44.4365C33.6322 45.2558 35.7226 45.6592 37.9688 45.6592V43.6592ZM32.4941 42.5967C30.823 41.8844 29.3886 40.9103 28.1807 39.6753L26.7509 41.0737C28.1505 42.5048 29.8069 43.6254 31.71 44.4365L32.4941 42.5967ZM28.1885 39.6833C26.9916 38.432 26.0484 36.9591 25.361 35.2544L23.5062 36.0024C24.2837 37.9306 25.362 39.6217 26.7432 41.0657L28.1885 39.6833ZM25.361 35.2544C24.6798 33.565 24.335 31.7373 24.335 29.7617H22.335C22.335 31.9756 22.7225 34.059 23.5062 36.0024L25.361 35.2544ZM24.335 29.7617C24.335 28.2423 24.5091 26.7607 24.8566 25.3153L22.912 24.8478C22.527 26.4493 22.335 28.0878 22.335 29.7617H24.335ZM24.8571 25.3132C25.2064 23.846 25.7009 22.4759 26.3388 21.2001L24.5499 20.3057C23.8401 21.7253 23.2946 23.2409 22.9115 24.8499L24.8571 25.3132ZM26.3368 21.204C26.9887 19.914 27.7777 18.7382 28.7036 17.674L27.1948 16.3612C26.1579 17.5529 25.2769 18.8672 24.5518 20.3019L26.3368 21.204ZM28.7078 17.6692C29.6293 16.5964 30.6726 15.6769 31.8392 14.9083L30.7389 13.2382C29.4153 14.1102 28.2321 15.1536 27.1906 16.366L28.7078 17.6692ZM31.8392 14.9083C33.002 14.1423 34.2773 13.5449 35.6694 13.1176L35.0826 11.2056C33.5156 11.6866 32.0664 12.3636 30.7389 13.2382L31.8392 14.9083ZM35.6694 13.1176C37.0458 12.6951 38.5282 12.4805 40.1221 12.4805V10.4805C38.3468 10.4805 36.6651 10.7199 35.0826 11.2056L35.6694 13.1176ZM40.1221 12.4805C40.7213 12.4805 41.3677 12.5084 42.0622 12.565L42.2249 10.5717C41.4838 10.5112 40.7826 10.4805 40.1221 10.4805V12.4805ZM42.0824 12.5665C42.7591 12.6079 43.4284 12.6907 44.0906 12.8149L44.4592 10.8492C43.7151 10.7097 42.9636 10.6167 42.2047 10.5702L42.0824 12.5665ZM44.1138 12.819C44.7824 12.9281 45.4283 13.0847 46.0523 13.2881L46.6723 11.3867C45.9486 11.1507 45.203 10.9703 44.436 10.8451L44.1138 12.819ZM46.0523 13.2881C46.6663 13.4884 47.2166 13.7319 47.707 14.0158L48.709 12.285C48.0861 11.9243 47.406 11.6259 46.6723 11.3867L46.0523 13.2881ZM47.2107 13.0773L46.5954 21.4708L48.5901 21.617L49.2053 13.2235L47.2107 13.0773ZM47.9439 20.6076C47.047 20.2713 46.1184 20.0473 45.1598 19.9354L44.9281 21.922C45.7274 22.0152 46.4979 22.2014 47.2416 22.4803L47.9439 20.6076ZM45.1783 19.9378C44.2715 19.8148 43.377 19.7529 42.4951 19.7529V21.7529C43.2832 21.7529 44.0879 21.8082 44.9096 21.9196L45.1783 19.9378ZM42.4951 19.7529C41.2174 19.7529 40.0042 19.9529 38.8629 20.3605L39.5356 22.244C40.445 21.9192 41.4291 21.7529 42.4951 21.7529V19.7529ZM38.8707 20.3577C37.7435 20.7498 36.7423 21.3267 35.878 22.0913L37.2031 23.5893C37.8622 23.0063 38.6335 22.5578 39.5277 22.2467L38.8707 20.3577ZM35.8708 22.0978C35.0162 22.8686 34.3434 23.8028 33.8504 24.8875L35.6711 25.7151C36.057 24.8661 36.5707 24.1597 37.2103 23.5829L35.8708 22.0978ZM33.8504 24.8875C33.3439 26.0018 33.1016 27.2373 33.1016 28.5752H35.1016C35.1016 27.4815 35.2987 26.5344 35.6711 25.7151L33.8504 24.8875ZM33.1016 28.5752C33.1016 29.4279 33.2165 30.2602 33.4477 31.0692L35.3707 30.5197C35.1917 29.8931 35.1016 29.2459 35.1016 28.5752H33.1016ZM33.4492 31.0744C33.6852 31.8835 34.0431 32.6207 34.527 33.2773L36.1371 32.0909C35.8006 31.6342 35.5434 31.1116 35.3692 30.5144L33.4492 31.0744ZM34.545 33.301C35.0549 33.9516 35.68 34.4788 36.4118 34.8795L37.3724 33.1253C36.8737 32.8523 36.4587 32.5006 36.1191 32.0672L34.545 33.301ZM36.4204 34.8842C37.2157 35.3096 38.1071 35.5078 39.0674 35.5078V33.5078C38.387 33.5078 37.8283 33.3691 37.3637 33.1207L36.4204 34.8842ZM39.0674 35.5078C39.7124 35.5078 40.3652 35.4229 41.0238 35.2582L40.5387 33.3179C40.0254 33.4463 39.5357 33.5078 39.0674 33.5078V35.5078ZM41.0182 35.2596C41.7479 35.0816 42.4021 34.7706 42.9569 34.3114L41.6818 32.7706C41.387 33.0146 41.0158 33.2016 40.5443 33.3166L41.0182 35.2596ZM43.318 33.5922L43.4059 31.8784L41.4085 31.7759L41.3206 33.4898L43.318 33.5922ZM42.4239 30.8273L37.1505 30.7394L37.1171 32.7391L42.3906 32.827L42.4239 30.8273ZM38.133 31.7792L38.3967 25.1874L36.3983 25.1075L36.1346 31.6993L38.133 31.7792ZM37.431 26.1469C39.6091 26.0738 41.7873 26.0153 43.9654 25.9715L43.9252 23.9719C41.7381 24.0159 39.551 24.0746 37.3639 24.148L37.431 26.1469ZM43.9721 25.9713C46.1591 25.9126 48.3607 25.8392 50.5768 25.7512L50.4974 23.7527C48.2897 23.8405 46.0967 23.9136 43.9185 23.972L43.9721 25.9713ZM49.5373 24.7698L49.8009 39.5354L51.8006 39.4997L51.5369 24.7341L49.5373 24.7698Z" fill="#9500FF" mask="url(#path-3-outside-1_437_29)"/>
<defs>
<linearGradient id="paint0_linear_437_29" x1="3" y1="27.9818" x2="52" y2="27.9818" gradientUnits="userSpaceOnUse">
<stop stop-color="#9500FF"/>
<stop offset="1" stop-color="#9500FF" stop-opacity="0.6"/>
</linearGradient>
<linearGradient id="paint1_linear_437_29" x1="105.5" y1="12" x2="288.5" y2="12" gradientUnits="userSpaceOnUse">
<stop stop-color="#9500FF"/>
<stop offset="0.554678" stop-color="#CC00FF"/>
</linearGradient>
</defs>
</svg>
