<svg width="67" height="67" viewBox="0 0 67 67" fill="none" xmlns="http://www.w3.org/2000/svg">
<path fill-rule="evenodd" clip-rule="evenodd" d="M0 33.5C0 14.9985 14.9985 0 33.5 0C52.0015 0 67 14.9985 67 33.5C67 52.0015 52.0015 67 33.5 67C14.9985 67 0 52.0015 0 33.5ZM16.75 33.5C16.75 24.2875 24.2875 16.75 33.5 16.75C42.7125 16.75 50.25 24.2875 50.0406 32.6625C50.0406 41.875 42.5031 49.4125 33.2906 49.4125C31.6156 49.4125 29.9406 49.2031 28.475 48.7844C29.1031 47.7375 29.7312 46.4812 30.15 45.225C30.3594 44.3875 31.4062 40.6188 31.4062 40.6188C32.0344 41.6656 33.7094 42.7125 35.5938 42.7125C41.0375 42.7125 44.5968 37.6875 44.5968 31.1969C44.5968 26.1719 40.4094 21.5656 33.9187 21.5656C25.9625 21.5656 21.9844 27.2188 21.9844 32.0344C21.9844 34.9656 23.0313 37.4781 25.3344 38.525C25.7531 38.7344 25.9625 38.525 26.1719 38.1062C26.3812 37.8969 26.5906 37.0594 26.5906 36.85C26.7387 36.5539 26.6773 36.4672 26.5547 36.2937C26.5039 36.2219 26.4426 36.1351 26.3813 36.0125C25.7531 35.175 25.3344 34.1281 25.3344 32.6625C25.3344 28.475 28.475 24.7063 33.5 24.7063C37.8969 24.7063 40.4094 27.4281 40.4094 31.1969C40.4094 36.2219 38.3156 40.2 35.175 40.2C33.2906 40.2 32.0344 38.7344 32.4531 37.0594C32.6279 36.1854 32.9122 35.2749 33.184 34.4041C33.5634 33.1888 33.9187 32.0507 33.9187 31.1969C33.9187 29.7312 33.0813 28.6844 31.6156 28.6844C29.9406 28.6844 28.475 30.5687 28.475 33.0813C28.475 34.7562 29.1031 35.8031 29.1031 35.8031C29.1031 35.8031 27.4281 43.55 27.0094 45.0156C26.8 46.2718 26.8 47.5279 26.8 48.7841C20.9375 46.2716 16.75 40.4094 16.75 33.5Z" fill="url(#paint0_linear_437_16)"/>
<defs>
<linearGradient id="paint0_linear_437_16" x1="33.5" y1="0" x2="33.5" y2="67" gradientUnits="userSpaceOnUse">
<stop stop-color="#CC00FF"/>
<stop offset="1" stop-color="#9500FF"/>
</linearGradient>
</defs>
</svg>
