<svg width="68" height="67" viewBox="0 0 68 67" fill="none" xmlns="http://www.w3.org/2000/svg">
<path fill-rule="evenodd" clip-rule="evenodd" d="M0.399994 33.5C0.399994 14.9985 15.3985 0 33.9 0C52.4015 0 67.4 14.9985 67.4 33.5C67.4 52.0015 52.4015 67 33.9 67C15.3985 67 0.399994 52.0015 0.399994 33.5ZM46.6719 24.0781C48.1375 23.8687 49.3937 23.6594 50.65 23.0312C49.8125 24.4969 48.5562 25.7531 47.0906 26.5906C47.5094 36.4312 40.3906 47.1094 27.6187 47.1094C23.85 47.1094 20.2906 45.8531 17.15 43.9688C20.7094 44.3875 24.4781 43.3406 26.9906 41.4562C23.85 41.4562 21.3375 39.3625 20.5 36.6406C21.5469 36.85 22.5937 36.6406 23.6406 36.4312C20.5 35.5938 18.1969 32.6625 18.1969 29.5219C19.2437 29.9406 20.2906 30.3594 21.3375 30.3594C18.4062 28.2656 17.3594 24.2875 19.2437 21.1469C22.8031 25.3344 27.8281 28.0562 33.4812 28.2656C32.4344 24.0781 35.7844 19.8906 40.1812 19.8906C42.0656 19.8906 43.95 20.7281 45.2062 21.9844C46.8812 21.5656 48.3469 21.1469 49.6031 20.3094C49.1844 21.9844 48.1375 23.2406 46.6719 24.0781Z" fill="url(#paint0_linear_437_8)"/>
<defs>
<linearGradient id="paint0_linear_437_8" x1="33.9" y1="0" x2="33.9" y2="67" gradientUnits="userSpaceOnUse">
<stop stop-color="#CC00FF"/>
<stop offset="1" stop-color="#9500FF"/>
</linearGradient>
</defs>
</svg>
