<svg width="69" height="67" viewBox="0 0 69 67" fill="none" xmlns="http://www.w3.org/2000/svg">
<path d="M39.725 33.5L30.8 28.475V38.525L39.725 33.5Z" fill="url(#paint0_linear_437_12)"/>
<path fill-rule="evenodd" clip-rule="evenodd" d="M0.199982 33.5C0.199982 14.9985 15.4223 0 34.2 0C52.9777 0 68.2 14.9985 68.2 33.5C68.2 52.0015 52.9777 67 34.2 67C15.4223 67 0.199982 52.0015 0.199982 33.5ZM47.375 22.4031C48.8625 22.8219 49.925 23.8688 50.35 25.3344C51.2 28.0563 51.2 33.5 51.2 33.5C51.2 33.5 51.2 38.9438 50.5625 41.6656C50.1375 43.1313 49.075 44.1781 47.5875 44.5969C44.825 45.225 34.2 45.225 34.2 45.225C34.2 45.225 23.3625 45.225 20.8125 44.5969C19.325 44.1781 18.2625 43.1313 17.8375 41.6656C17.2 38.9438 17.2 33.5 17.2 33.5C17.2 33.5 17.2 28.0563 17.625 25.3344C18.05 23.8688 19.1125 22.8219 20.6 22.4031C23.3625 21.775 33.9875 21.775 33.9875 21.775C33.9875 21.775 44.825 21.775 47.375 22.4031Z" fill="url(#paint1_linear_437_12)"/>
<defs>
<linearGradient id="paint0_linear_437_12" x1="34.2" y1="0" x2="34.2" y2="67" gradientUnits="userSpaceOnUse">
<stop stop-color="#CC00FF"/>
<stop offset="1" stop-color="#9500FF"/>
</linearGradient>
<linearGradient id="paint1_linear_437_12" x1="34.2" y1="0" x2="34.2" y2="67" gradientUnits="userSpaceOnUse">
<stop stop-color="#CC00FF"/>
<stop offset="1" stop-color="#9500FF"/>
</linearGradient>
</defs>
</svg>
